<svg id="bc9623d6-722a-4281-99d6-5c3a35874cc6" data-name="Layer 1" xmlns="http://www.w3.org/2000/svg" viewBox="0 0 104.82 112.24">
  <path d="M50,20.94A3,3,0,0,1,53,24V67.86c0,6.52-1.39,24-24.8,24-21,0-24.3-14.13-24.69-21.73a2.59,2.59,0,0,1,2.17-2.77l11-2.47a3.32,3.32,0,0,1,4,3.06c.49,4.35,2.27,6.92,7.6,6.92,7.31,0,7.81-4.65,7.81-12.25V24a3,3,0,0,1,3.06-3.07Z" style="fill: #231f20"/>
  <path d="M85.26,40.61c-1.61.32-2.41-.4-2.66-2-.56-3.3-3.22-5.4-7-5.4-3.14,0-5.07,1.86-4.75,3.71C72,43.18,97.41,43,97.41,61.53c0,2.42-2.73,16.66-21.81,16.66-16.9,0-20.52-11.1-20.92-17.38a2.36,2.36,0,0,1,2.09-2.66l9.09-2c1.61-.32,2.5.4,2.66,2.09.32,3.87,3.3,6.12,7.08,6.12,4,0,6.84-2.33,6.36-4.51C80.43,53,56.21,54.53,56.21,36c-.08-2.41,1.37-16.66,19.39-16.66,16.58,0,20.44,10.79,20.93,16.58a2.38,2.38,0,0,1-2.1,2.66Z" style="fill: #231f20"/>
  <path d="M89.1,87a5,5,0,0,1-5,4.91H68a4.91,4.91,0,1,1,0-9.81H84.1A5,5,0,0,1,89.1,87Z" style="fill: #231f20"/>
</svg>
