<svg xmlns="http://www.w3.org/2000/svg" data-name="Layer 1" viewBox="0 0 88.35 79.59"><path fill="#fff" d="M69.67 65.14a36 36 0 1 1 7.73-11.47 35.66 35.66 0 0 1-7.73 11.47Z"/><path fill="#83181b" d="m87.41 50.12-7-3.41a37.18 37.18 0 0 0 .68-7.08 37 37 0 0 0-71-14.39 36.71 36.71 0 0 0-2.9 14.39 37.39 37.39 0 0 0 .67 7l-7 3.45 4.57 6-.31 8.25 8.6-3.76a37.28 37.28 0 0 0 4.28 5.2 36.92 36.92 0 0 0 52.29 0 37.51 37.51 0 0 0 4.29-5.13l8.11 3.63-.28-8.27ZM44.17 4.06a35.41 35.41 0 1 1-13.85 2.79 35.39 35.39 0 0 1 13.85-2.79Z"/><path fill="#cd2129" d="M73.64 44.91a31.92 31.92 0 0 0 .36-4.48V39.3a17.5 17.5 0 0 0-.07-2.8l-.19-.5-1 .13.06.5a16.51 16.51 0 0 1 .06 2.65v1.14a30.5 30.5 0 0 1-.33 4.48H15.42a29.19 29.19 0 0 1-.34-4.48 26.43 26.43 0 0 1 .29-4.61l.08-.5-1.08-.18-.08.5a27.61 27.61 0 0 0-.29 4.8 30.5 30.5 0 0 0 .33 4.48H6v.54A37.71 37.71 0 0 0 9.78 59l.13.29h10.71a33.37 33.37 0 0 0 2.53 2.78 30.39 30.39 0 0 0 20.92 8.66 29.52 29.52 0 0 0 21.22-8.87 32.32 32.32 0 0 0 2.25-2.57h10.69l.14-.29a37.92 37.92 0 0 0 3.7-13.54v-.54Zm-7.51 14.37c-.52.62-1.06 1.22-1.63 1.8a28.39 28.39 0 0 1-20.43 8.54 29.23 29.23 0 0 1-20.15-8.35c-.65-.64-1.28-1.3-1.87-2Z"/><path fill="#cd242b" d="m43.86 38-3.24-7.11h-.08V38h-2V26.62h2.4l2.91 6.46h.1v-6.46h2V38Z"/><path fill="#030303" d="M32.79 33.18v-6.54h2V38h-2.13c-1.07-2.36-2.17-4.76-3.26-7.15h-.09V38h-2V26.62h2.39l3 6.59Z"/><path fill="#060606" d="M56 35c0-.16-.18-.17-.27-.23a2.29 2.29 0 0 1-1.26-2.31 2.4 2.4 0 0 1 1.58-2.18 3.64 3.64 0 0 1 2.5-.06 3.63 3.63 0 0 0 1 .24 1.87 1.87 0 0 0 1.3-.33 4 4 0 0 1 .77.77 2.17 2.17 0 0 1-1.74.46 2.7 2.7 0 0 1 .37 1.4 2.41 2.41 0 0 1-2.17 2.35 3.21 3.21 0 0 0-1.5.49.61.61 0 0 0-.37.46c.07.33.35.34.62.34h1.75a2.29 2.29 0 0 1 .93.17 2 2 0 0 1 1.33 1.71 2.2 2.2 0 0 1-1.08 2.26 2.93 2.93 0 0 1-1.08.36 5.88 5.88 0 0 1-3.29-.34 1.73 1.73 0 0 1-.88-2.44 8.14 8.14 0 0 1 1.23-.07 3.71 3.71 0 0 0-.14.39 1.06 1.06 0 0 0 .63 1.31 3.53 3.53 0 0 0 2.31.14 1.27 1.27 0 0 0 .89-1.68 1.11 1.11 0 0 0-1-.75 8 8 0 0 0-1.55 0 3.14 3.14 0 0 1-1.14-.07 1 1 0 0 1-.86-.86 1 1 0 0 1 .53-1.19Zm2.77-2.29c0-1.23-.55-1.72-1.67-1.61l-.25.05A1.14 1.14 0 0 0 56 32a2.2 2.2 0 0 0-.05 1.14 1.54 1.54 0 0 0 2.43.77 1.19 1.19 0 0 0 .38-.69 4.35 4.35 0 0 0 .01-.55Z"/><path fill="#090909" d="M53.42 25.14a.4.4 0 0 1 .55 0c.18.16.12.36.06.55q-.89 2.68-1.75 5.37l-3.06 9.4a1.84 1.84 0 0 1-.3.72.51.51 0 0 1-.45 0 .43.43 0 0 1-.16-.56c.18-.55.35-1.11.53-1.66q2.16-6.62 4.37-13.32a1.57 1.57 0 0 1 .21-.5Z"/><g fill="#fff"><path d="M22.08 53.07a1.64 1.64 0 0 1-.38.56 1.78 1.78 0 0 1-.6.36 2.41 2.41 0 0 1-1.56 0 1.83 1.83 0 0 1-.59-.36 1.61 1.61 0 0 1-.37-.56 1.9 1.9 0 0 1-.13-.73V49.6h1.05v2.66a1.27 1.27 0 0 0 .05.34 1 1 0 0 0 .14.29.75.75 0 0 0 .26.2 1.07 1.07 0 0 0 .76 0 .75.75 0 0 0 .26-.2 1 1 0 0 0 .14-.29 1.27 1.27 0 0 0 .05-.34V49.6h1.06v2.74a1.9 1.9 0 0 1-.14.73ZM26.82 54l-1-1.55-.89 1.55h-1.27l1.54-2.32-1.41-2.08h1.28l.82 1.4.8-1.37h1.24l-1.39 2.08L28.13 54ZM35.44 53.92a2.32 2.32 0 0 1-1 .2 2.58 2.58 0 0 1-.94-.17 2.22 2.22 0 0 1-.75-.47 2.25 2.25 0 0 1-.5-.74 2.42 2.42 0 0 1-.18-.94 2.45 2.45 0 0 1 .18-1 2.28 2.28 0 0 1 .51-.73 2.34 2.34 0 0 1 .76-.46 2.75 2.75 0 0 1 1.85 0 1.73 1.73 0 0 1 .73.48l-.72.72a.89.89 0 0 0-.39-.3 1.24 1.24 0 0 0-.5-.1 1.22 1.22 0 0 0-.91.38 1.34 1.34 0 0 0-.26.43 1.53 1.53 0 0 0-.09.54 1.57 1.57 0 0 0 .09.54 1.24 1.24 0 0 0 .26.43A1.05 1.05 0 0 0 34 53a1.18 1.18 0 0 0 .5.1 1.22 1.22 0 0 0 .56-.12 1.18 1.18 0 0 0 .38-.32l.74.69a2.05 2.05 0 0 1-.74.57ZM37.71 54v-4.4h3v.9h-1.97v.83h1.82v.85h-1.82v.91h2V54ZM44.93 54l-1-1.74h-.36V54h-1v-4.4h1.68a3.18 3.18 0 0 1 .62.07 1.62 1.62 0 0 1 .54.22 1.07 1.07 0 0 1 .38.41 1.22 1.22 0 0 1 .14.63 1.16 1.16 0 0 1-.24.75 1.28 1.28 0 0 1-.67.44L46.17 54Zm0-3a.46.46 0 0 0-.06-.25.5.5 0 0 0-.17-.15.88.88 0 0 0-.23-.07h-.81v1h.77a1 1 0 0 0 .25-.07.48.48 0 0 0 .18-.17.45.45 0 0 0 .02-.29ZM49.59 50.51V54h-1.06v-3.49h-1.24v-.91h3.54v.91ZM52.41 54v-4.4h1.07V54ZM56.53 50.51v.91h1.7v.87h-1.7V54h-1.05v-4.4h2.89v.91ZM60.15 54v-4.4h1.07V54ZM63.22 54v-4.4h3v.9h-1.98v.83h1.83v.85h-1.83v.91h2.05V54ZM72.18 51.79a2.2 2.2 0 0 1-.21 1 2 2 0 0 1-.56.69 2.29 2.29 0 0 1-.8.39 3 3 0 0 1-.89.13h-1.64v-4.4h1.59a4.06 4.06 0 0 1 .92.11 2.7 2.7 0 0 1 .81.36 2 2 0 0 1 .57.68 2.32 2.32 0 0 1 .21 1.04Zm-1.1 0a1.43 1.43 0 0 0-.12-.62 1.12 1.12 0 0 0-.32-.39 1.28 1.28 0 0 0-.46-.21 2.39 2.39 0 0 0-.53-.06h-.53v2.57h.5a2.51 2.51 0 0 0 .55-.06 1.45 1.45 0 0 0 .47-.22 1.07 1.07 0 0 0 .32-.4 1.38 1.38 0 0 0 .12-.61Z"/></g><g fill="#83181b"><path d="m18.59 30.79-2.39.77 2.08.48-.18.74-3.17-.78.21-.88 2.38-.77-2.07-.48.18-.75 3.17.77ZM19.32 28.69l-3-1.29.31-.73 3 1.29ZM20.21 26.73l-2.81-1.65 1.11-1.89.57.33-.72 1.24.53.31.68-1.17.55.32-.69 1.17.59.34.76-1.3.59.34ZM22.06 23.78l-2.57-2 .48-.63 2 1.58.77-1 .54.42ZM23.52 18.44a.63.63 0 0 0-.33 0 .73.73 0 0 0-.27.17l-.11.13a.35.35 0 0 0-.06.14.38.38 0 0 0 0 .15.29.29 0 0 0 .2.21h.14l.17-.06.19-.1.33-.16a1.24 1.24 0 0 1 .36-.11.94.94 0 0 1 .37 0 .71.71 0 0 1 .35.22 1 1 0 0 1 .28.41 1 1 0 0 1 0 .44 1.16 1.16 0 0 1-.14.42 1.69 1.69 0 0 1-.28.38 1.82 1.82 0 0 1-.56.39 1.45 1.45 0 0 1-.63.15v-.74a1 1 0 0 0 .4-.05 1 1 0 0 0 .34-.21.69.69 0 0 0 .11-.13.47.47 0 0 0 .06-.15.76.76 0 0 0 0-.15.41.41 0 0 0-.1-.14.29.29 0 0 0-.14-.08.62.62 0 0 0-.18 0 .8.8 0 0 0-.21.08l-.27.14-.3.13a1.23 1.23 0 0 1-.32.07.93.93 0 0 1-.32-.05.85.85 0 0 1-.31-.22A.87.87 0 0 1 22 19a1.42 1.42 0 0 1 .15-.42 1.93 1.93 0 0 1 .28-.36 1.8 1.8 0 0 1 .47-.33 1.42 1.42 0 0 1 .57-.15ZM26.49 19l-2-2.55 1.72-1.37.41.52-1.12.9.38.48 1.06-.84.39.49-1.06.84.43.53 1.15-1 .42.53ZM31 15.81l-2.22-1.16 1.1 1.83-.66.39-1.66-2.81.77-.46 2.21 1.17-1.1-1.82.66-.39 1.66 2.81ZM36.73 13.4l-1.91-1.63.67 2-.73.23-1-3.11.85-.27 1.9 1.63-.67-2 .73-.23 1 3.11ZM42 10.69a1.72 1.72 0 0 1 0 .72 1.65 1.65 0 0 1-.28.6 1.94 1.94 0 0 1-.51.43 1.88 1.88 0 0 1-.68.22 1.91 1.91 0 0 1-.72 0 1.76 1.76 0 0 1-.61-.26 1.63 1.63 0 0 1-.45-.49 1.89 1.89 0 0 1-.23-.68 1.72 1.72 0 0 1 0-.72 1.55 1.55 0 0 1 .29-.59 1.58 1.58 0 0 1 .5-.42 2.16 2.16 0 0 1 1.41-.2 1.53 1.53 0 0 1 .6.25 1.59 1.59 0 0 1 .45.48 1.66 1.66 0 0 1 .23.66Zm-.83.12a1 1 0 0 0-.13-.38.91.91 0 0 0-.23-.28.9.9 0 0 0-.32-.17 1 1 0 0 0-.39 0 1 1 0 0 0-.36.13.78.78 0 0 0-.26.25 1 1 0 0 0-.15.34 1.33 1.33 0 0 0 0 .4 1.25 1.25 0 0 0 .13.4 1 1 0 0 0 .24.29.88.88 0 0 0 .32.16.8.8 0 0 0 .38 0 .94.94 0 0 0 .63-.38 1.16 1.16 0 0 0 .14-.34 1.17 1.17 0 0 0 0-.42ZM45.17 12.3l-.68-1.3h-.27v1.29h-.77L43.49 9h1.24a2.31 2.31 0 0 1 .46.05 1.32 1.32 0 0 1 .4.18.81.81 0 0 1 .28.3A1 1 0 0 1 46 10a.8.8 0 0 1-.19.55 1 1 0 0 1-.5.31l.82 1.42Zm0-2.26a.28.28 0 0 0 0-.19.25.25 0 0 0-.17-.11.49.49 0 0 0-.17-.06h-.61v.76h.57a.6.6 0 0 0 .19-.06.36.36 0 0 0 .14-.11.39.39 0 0 0 .06-.27ZM50.05 12.93l.45-2.26-1.27 2.11-.54-.11-.38-2.42-.42 2.27-.73-.14.62-3.21 1.1.22.33 2.19 1.1-1.92 1.12.21-.62 3.21ZM54.12 14.29v-.69l-1.18-.45-.45.51-.8-.31 2.45-2.55.72.28.08 3.53Zm.05-2.54-.79.89.77.3ZM57.59 16.07l-.09-2.51-1 1.86-.71-.42 1.61-2.8.78.45.09 2.5 1-1.85.66.37-1.61 2.84ZM62.78 19.93a2.62 2.62 0 0 1-.58-.4 1.86 1.86 0 0 1-.46-.56 1.54 1.54 0 0 1-.2-.64 1.47 1.47 0 0 1 .07-.65 1.79 1.79 0 0 1 .36-.62 2.13 2.13 0 0 1 .56-.45 1.61 1.61 0 0 1 1.29-.05 2 2 0 0 1 .61.36 2.18 2.18 0 0 1 .46.56 1.3 1.3 0 0 1 .2.59l-.74.11a.87.87 0 0 0-.09-.37 1.07 1.07 0 0 0-.27-.34 1 1 0 0 0-.34-.2.92.92 0 0 0-.37 0 1 1 0 0 0-.36.11 1.11 1.11 0 0 0-.32.26 1.13 1.13 0 0 0-.22.36.94.94 0 0 0-.07.37 1 1 0 0 0 .1.36 1.19 1.19 0 0 0 .27.34 1.07 1.07 0 0 0 .22.15.67.67 0 0 0 .21.1l.39-.44-.5-.44.42-.48 1 .88-1.12 1.3a2.43 2.43 0 0 1-.52-.21ZM65.34 22.53l.47-1.4-.18-.19-.95.87-.52-.57L66.57 19l.84.92a2.51 2.51 0 0 1 .27.37 1.09 1.09 0 0 1 .15.4 1 1 0 0 1 0 .42.92.92 0 0 1-.28.39.85.85 0 0 1-.53.25 1.07 1.07 0 0 1-.58-.15L66 23.21ZM67 21a.35.35 0 0 0 .1-.16.49.49 0 0 0 0-.17.6.6 0 0 0-.08-.16l-.11-.15-.3-.36-.56.52.26.27a.93.93 0 0 0 .14.14.75.75 0 0 0 .17.1.37.37 0 0 0 .18 0A.39.39 0 0 0 67 21ZM70 25.87a1.81 1.81 0 0 1-.65.3 1.64 1.64 0 0 1-.66 0 1.65 1.65 0 0 1-.62-.25 2.06 2.06 0 0 1-.51-.51 1.81 1.81 0 0 1-.3-.65 1.66 1.66 0 0 1 0-.66 1.56 1.56 0 0 1 .23-.62 1.9 1.9 0 0 1 .5-.52 1.94 1.94 0 0 1 .66-.3 1.58 1.58 0 0 1 .65 0 1.79 1.79 0 0 1 .6.27 2.19 2.19 0 0 1 .51.5 2 2 0 0 1 .31.65 1.67 1.67 0 0 1 .05.66 1.51 1.51 0 0 1-.23.61 1.64 1.64 0 0 1-.54.52Zm-.48-.69a1.07 1.07 0 0 0 .28-.28 1.14 1.14 0 0 0 .15-.34 1.09 1.09 0 0 0 0-.36 1.14 1.14 0 0 0-.16-.36.86.86 0 0 0-.28-.26 1.06 1.06 0 0 0-.34-.12.94.94 0 0 0-.37 0 1.51 1.51 0 0 0-.36.18 1 1 0 0 0-.29.29.79.79 0 0 0-.15.34.87.87 0 0 0 0 .36 1 1 0 0 0 .16.35.9.9 0 0 0 .28.27 1.06 1.06 0 0 0 .34.12.93.93 0 0 0 .37 0 1 1 0 0 0 .32-.19ZM71 29.94a1.21 1.21 0 0 1-.5-.07 1.63 1.63 0 0 1-.44-.28 2 2 0 0 1-.34-.48 1.79 1.79 0 0 1-.17-.56 1.46 1.46 0 0 1 0-.52 1.34 1.34 0 0 1 .25-.43 1.61 1.61 0 0 1 .44-.32l1.83-.89.34.7-1.71.91a.74.74 0 0 0-.22.14.52.52 0 0 0-.14.19.46.46 0 0 0 0 .23.61.61 0 0 0 .07.28.62.62 0 0 0 .18.23.46.46 0 0 0 .22.11H71l.25-.08 1.75-.91.35.71-1.82.89a1.37 1.37 0 0 1-.53.15ZM73.62 33.4a1 1 0 0 1-.49 0 .85.85 0 0 1-.37-.21 1.22 1.22 0 0 1-.27-.36 2.36 2.36 0 0 1-.16-.47l-.09-.36-1.2.29-.18-.77 3.14-.76.28 1.17a2.2 2.2 0 0 1 .06.5 1.21 1.21 0 0 1-.07.43.78.78 0 0 1-.24.33.91.91 0 0 1-.41.21Zm-.18-.77a.3.3 0 0 0 .17-.08.46.46 0 0 0 .09-.15.59.59 0 0 0 0-.19v-.2l-.08-.34-.75.18.07.32a1.18 1.18 0 0 0 .07.2.69.69 0 0 0 .1.17l.15.09a.34.34 0 0 0 .18 0Z"/></g></svg>