<svg xmlns="http://www.w3.org/2000/svg" xml:space="preserve" id="Layer_1" x="0" y="0" version="1.1" viewBox="0 0 867.7 746.1"><style>.st0{fill:#fff}.st1{fill:#83181b}</style><path d="M689.1 627c-33.1 33.1-71.6 59-114.5 77.2-44.4 18.8-91.6 28.3-140.2 28.3s-95.8-9.5-140.2-28.3c-42.9-18.1-81.4-44.1-114.5-77.2-33.1-33.1-59-71.6-77.2-114.5-18.6-44.3-28.1-91.5-28.1-140.1 0-48.6 9.5-95.8 28.3-140.2 18.1-42.9 44.1-81.4 77.2-114.5 33.1-33.1 71.6-59 114.5-77.2 44.4-18.8 91.6-28.3 140.2-28.3s95.8 9.5 140.2 28.3c42.9 18.1 81.4 44.1 114.5 77.2 33.1 33.1 59 71.6 77.2 114.5 18.8 44.4 28.3 91.6 28.3 140.2 0 48.6-9.5 95.8-28.3 140.2-18.3 42.8-44.3 81.3-77.4 114.4z" class="st0"/><path d="m811.2 534.3 47.1-55.5-67.1-32.9c4.9-24 7.4-48.6 7.4-73.5 0-49.2-9.6-96.8-28.6-141.7-18.3-43.4-44.6-82.3-78-115.7-33.4-33.4-72.4-59.7-115.7-78-44.9-19-92.6-28.6-141.7-28.6S337.8 18 292.9 37c-43.4 18.3-82.3 44.6-115.7 78-33.4 33.4-59.7 72.4-78 115.7-19 44.9-28.6 92.6-28.6 141.7 0 24.8 2.5 49.2 7.3 73l-68 33.4L53 535.3l-2.8 76.2 82.3-36c13.1 19.4 28 37.6 44.8 54.4 33.4 33.4 72.4 59.7 115.7 78 44.9 19 92.6 28.6 141.7 28.6s96.8-9.6 141.7-28.6c43.4-18.3 82.3-44.6 115.7-78 16.7-16.7 31.6-34.7 44.6-54l77.5 34.6-3-76.2zM689.1 627c-33.1 33.1-71.6 59-114.5 77.2-44.4 18.8-91.6 28.3-140.2 28.3s-95.8-9.5-140.2-28.3c-42.9-18.1-81.4-44.1-114.5-77.2-33.1-33.1-59-71.6-77.2-114.5-18.6-44.3-28.1-91.5-28.1-140.1 0-48.6 9.5-95.8 28.3-140.2 18.1-42.9 44.1-81.4 77.2-114.5 33.1-33.1 71.6-59 114.5-77.2 44.4-18.8 91.6-28.3 140.2-28.3s95.8 9.5 140.2 28.3c42.9 18.1 81.4 44.1 114.5 77.2 33.1 33.1 59 71.6 77.2 114.5 18.8 44.4 28.3 91.6 28.3 140.2 0 48.6-9.5 95.8-28.3 140.2-18.3 42.8-44.3 81.3-77.4 114.4z" class="st1"/><path fill="#cd2129" d="M807.9 430.1h-85c2.6-16.3 4-32.9 4-49.7 0-3.8.1-7.7.2-11.5.2-9 .5-18.2-.7-27.2l-1 .1c1.2 8.9.9 17.7.7 27.1-.1 3.8-.2 7.6-.2 11.5 0 16.8-1.4 33.4-4 49.7H143.3c-2.8-16.3-4.2-32.9-4.2-49.7 0-18.2.5-31.7 3-46.9l-1-.2c-2.5 15.3-3 28.8-3 47.1 0 16.8 1.4 33.4 4.2 49.7h-83c3.8 47.5 16.5 92.5 36.4 133.4h106.2c8.1 10.2 16.9 19.9 26.4 29.2 55.6 54.1 130.4 85.1 205.3 85.1 79.2 0 153.2-30.9 208.3-87.1 8.5-8.6 16.3-17.7 23.6-27.2h106c19.8-40.9 32.5-85.9 36.4-133.4zM641.1 590c-54.9 56-128.7 86.8-207.6 86.8-74.6 0-149.2-30.9-204.6-84.8-9.3-9-17.9-18.5-25.8-28.5h461c-7.1 9.2-14.8 18.1-23 26.5z"/><path fill="#cd242b" d="M431.4 356c-10.7-23.6-21.5-47.3-32.3-71-.3.1-.6.2-.8.2V356h-19.9V242.3h23.9c9.6 21.4 19.4 42.9 29.1 64.5.3-.1.6-.1.9-.2v-64.3h20.2v113.5c-6.7.2-13.6.2-21.1.2z"/><path fill="#030303" d="M320.9 307.9v-65.3h19.5v113.5h-20.8c-10.8-23.6-21.7-47.5-32.6-71.5l-.9.3v71.3h-19.9V242.5H290c9.8 21.8 19.8 43.8 29.7 65.8.5-.1.8-.3 1.2-.4z"/><path fill="#060606" d="M552.6 325.8c-.5-1.6-1.8-1.8-2.7-2.3-8.9-5.1-13.4-12.8-12.5-23.1.8-10.4 6.2-17.8 15.8-21.8 8.1-3.3 16.5-3.2 24.9-.6 3.2 1 6.2 2.3 9.6 2.4 4.6.2 9-.4 13-3.3 3.1 2 5.3 4.9 7.7 7.6-5.1 4.3-10.8 5.3-17.4 4.6 2.5 4.6 3.9 9 3.7 14-.5 12-9.5 22.9-21.6 23.5-5.5.3-10.3 2.2-15 4.9-1.7 1-3.4 2.1-3.7 4.6.7 3.3 3.5 3.4 6.2 3.4 5.8.1 11.6.2 17.5.3 3.2.1 6.3.4 9.3 1.7 7.6 3.3 12.7 8.5 13.3 17.1.6 9.4-2 17.5-10.7 22.5-3.4 1.9-7 3.1-10.8 3.6-11.2 1.4-22.3 1.4-32.8-3.4-10-4.5-13.3-13.8-8.8-24.4 4 0 8-1.3 12.3-.7-.5 1.4-1.1 2.6-1.4 3.9-1.5 5.8.9 10.7 6.3 13 7.5 3.2 15.2 3.6 23 1.5 7.7-2.1 11.3-9.2 9-16.8-1.5-5-5.6-6.8-10.2-7.5-5.1-.7-10.3-.9-15.4-.4-3.8.3-7.7.2-11.4-.7-4.5-1.2-7.9-3.8-8.6-8.6-.8-5 .5-9.3 5.3-11.9 1.8-.9 4-2 6.1-3.1zm27.7-22.9c-.1-12.2-5.5-17.1-16.7-16-.8.1-1.6.3-2.5.5-4.7 1-7.6 3.9-9 8.4-1.1 3.7-1.4 7.5-.5 11.4 2.3 10.2 16.5 14.7 24.3 7.7 2.1-1.9 3.3-4.2 3.8-6.9.4-2.1.5-4.1.6-5.1z"/><path fill="#090909" d="M526.9 227.7c1.9-1.3 3.7-1.5 5.5.1 1.8 1.7 1.2 3.6.5 5.6-5.8 17.9-11.7 35.7-17.5 53.6-10.2 31.3-20.3 62.6-30.5 93.8-.8 2.5-1.2 5.2-3 7.3-1.4.9-2.9.9-4.4.5-2.2-1.3-2.4-3.2-1.6-5.6 1.8-5.5 3.5-11.1 5.3-16.6 14.5-44.5 29.1-89.1 43.6-133.6.5-1.8.9-3.6 2.1-5.1z"/><path d="M214 506.5c-.9 2.2-2.2 4-3.8 5.6-1.7 1.5-3.6 2.8-6 3.6-2.3.9-4.9 1.3-7.8 1.3-2.9 0-5.5-.4-7.8-1.3s-4.3-2.1-5.9-3.6c-1.6-1.5-2.9-3.4-3.7-5.6s-1.3-4.6-1.3-7.2V472h10.5v26.5c0 1.2.2 2.3.5 3.4s.8 2 1.4 2.9c.6.8 1.5 1.5 2.5 2 1.1.5 2.3.7 3.8.7s2.8-.2 3.8-.7c1.1-.5 1.9-1.2 2.6-2 .7-.8 1.1-1.8 1.4-2.9.3-1.1.4-2.2.4-3.4V472h10.6v27.3c.2 2.6-.3 5-1.2 7.2zM261.3 515.8l-9.6-15.5-9.2 15.5h-12.6l15.4-23.2-14.3-20.7h12.8l8.2 13.6 8.1-13.6h12.3l-13.9 20.7 15.9 23.2h-13.1zM347.4 515.1c-2.9 1.3-6.1 2-9.9 2-3.4 0-6.5-.6-9.4-1.7-2.9-1.1-5.4-2.7-7.5-4.7-2.1-2-3.8-4.5-5-7.3-1.2-2.9-1.8-6-1.8-9.4 0-3.5.6-6.7 1.8-9.5 1.2-2.9 2.9-5.3 5.1-7.3 2.1-2 4.7-3.5 7.6-4.6 2.9-1.1 6-1.6 9.4-1.6 3.1 0 6.1.5 9.1 1.6s5.4 2.7 7.3 4.8l-7.2 7.2c-1-1.4-2.3-2.4-3.9-3-1.6-.7-3.3-1-5-1-1.9 0-3.6.3-5.1 1-1.5.7-2.9 1.6-4 2.8-1.1 1.2-2 2.6-2.6 4.2-.6 1.6-.9 3.4-.9 5.4 0 2 .3 3.8.9 5.5s1.5 3.1 2.6 4.2c1.1 1.2 2.4 2.1 3.9 2.8 1.5.7 3.2 1 5 1 2.1 0 3.9-.4 5.5-1.2 1.6-.8 2.8-1.9 3.8-3.2l7.4 6.9c-1.8 2-4.2 3.8-7.1 5.1zM370 515.8v-43.9h29.5v8.9h-19.3v8.3h18.2v8.5h-18.2v9.1h20.4v9.1H370zM442.1 515.8l-9.5-17.4H429v17.4h-10.4v-43.9h16.7c2.1 0 4.2.2 6.2.7 2 .4 3.8 1.2 5.4 2.2 1.6 1 2.9 2.4 3.8 4.1 1 1.7 1.4 3.8 1.4 6.3 0 3-.8 5.5-2.4 7.5-1.6 2-3.8 3.5-6.7 4.3l11.5 18.8h-12.4zm-.4-30.4c0-1-.2-1.9-.7-2.5-.4-.6-1-1.1-1.7-1.5-.7-.4-1.5-.6-2.3-.7s-1.7-.2-2.5-.2h-5.7v10.2h5c.9 0 1.8-.1 2.7-.2.9-.1 1.7-.4 2.5-.8.7-.4 1.4-.9 1.8-1.6.6-.7.9-1.6.9-2.7zM488.7 481v34.8H478V481h-12.4v-9.1H501v9.1h-12.3zM516.8 515.8v-43.9h10.7v43.9h-10.7zM557.9 481v9.1h17v8.7h-17v17h-10.5v-43.9h28.9v9.1h-18.4zM594 515.8v-43.9h10.7v43.9H594zM624.7 515.8v-43.9h29.5v8.9h-19.3v8.3h18.2v8.5h-18.2v9.1h20.4v9.1h-30.6zM714.2 493.8c0 3.8-.7 7.2-2.1 10s-3.3 5.1-5.6 6.9-5 3.1-7.9 4c-2.9.8-5.9 1.3-8.9 1.3h-16.4v-43.9h15.9c3.1 0 6.2.4 9.2 1.1 3 .7 5.7 1.9 8.1 3.6 2.4 1.7 4.3 3.9 5.7 6.7 1.3 2.7 2 6.1 2 10.3zm-11 0c0-2.5-.4-4.5-1.2-6.2-.8-1.6-1.9-2.9-3.2-3.9-1.3-1-2.9-1.7-4.6-2.1-1.7-.4-3.5-.6-5.3-.6h-5.3v25.7h5c1.9 0 3.7-.2 5.5-.7 1.8-.4 3.3-1.1 4.7-2.1 1.3-1 2.4-2.3 3.2-4 .8-1.7 1.2-3.7 1.2-6.1z" class="st0"/><g><path d="m179.1 284.1-23.8 7.7v.1l20.7 4.8-1.8 7.4-31.7-7.7 2.1-8.7 23.7-7.7v-.1l-20.7-4.8 1.8-7.4 31.7 7.7-2 8.7zM186.4 263.2l-29.9-12.9 3.1-7.3 29.9 12.9-3.1 7.3zM195.3 243.6l-28.1-16.5 11.1-18.9 5.7 3.4-7.2 12.3 5.3 3.1 6.8-11.7 5.4 3.2-6.8 11.7 5.8 3.4 7.7-13.1 5.8 3.4-11.5 19.7zM213.8 214.1l-25.7-20 4.8-6.3 20.3 15.8 7.7-10 5.4 4.2-12.5 16.3zM228.4 160.8c-1.1-.1-2.2 0-3.3.4-1.1.4-2 1-2.8 1.7-.4.4-.7.8-1 1.2s-.5.9-.6 1.4c-.1.5-.1 1 0 1.5s.4 1 .8 1.4c.4.4.8.6 1.2.7.4.1.9.1 1.4 0 .5-.1 1.1-.3 1.7-.6l2-1c1-.5 2.1-1.1 3.3-1.6 1.2-.5 2.3-.9 3.6-1.1 1.2-.2 2.4-.1 3.7.2 1.2.3 2.4 1 3.6 2.2 1.3 1.3 2.2 2.7 2.7 4.1.5 1.4.6 2.9.5 4.4-.2 1.5-.7 2.9-1.4 4.2-.7 1.4-1.7 2.6-2.8 3.8-1.6 1.7-3.5 3-5.6 4-2.1 1-4.2 1.5-6.3 1.4l-.1-7.4c1.3.1 2.6-.1 4-.5 1.4-.5 2.5-1.2 3.4-2.1.4-.4.8-.9 1.1-1.3.3-.5.5-1 .6-1.5.1-.5.1-1-.1-1.5s-.5-1-.9-1.4c-.4-.4-.9-.7-1.4-.8-.5-.1-1.1 0-1.8.1-.6.2-1.4.4-2.2.8-.8.4-1.7.9-2.7 1.4-1 .5-2 1-3 1.3-1 .4-2.1.6-3.1.7-1.1.1-2.1-.1-3.2-.5s-2.1-1.1-3.2-2.1c-1.3-1.3-2.1-2.6-2.5-4s-.5-2.9-.2-4.3.8-2.8 1.5-4.2c.8-1.3 1.7-2.6 2.8-3.6 1.3-1.3 2.9-2.4 4.7-3.3 1.8-.9 3.7-1.4 5.7-1.5l-.1 7.4zM258 166.2l-20.3-25.5 17.1-13.6 4.1 5.2-11.2 8.9 3.8 4.8 10.6-8.4 3.9 4.9-10.6 8.4 4.2 5.3 11.8-9.4 4.2 5.3-17.6 14.1zM303.4 134.6l-22.1-11.7-.1.1 11 18.2-6.6 3.9-16.6-28 7.7-4.6 22.1 11.6.1-.1-11-18.2 6.6-3.9 16.6 28-7.7 4.7zM360.2 110.5l-19-16.3h-.1l6.7 20.2-7.3 2.3-9.9-31 8.5-2.7L358 99.3h.1l-6.7-20.2 7.3-2.3 9.9 31-8.4 2.7zM412.9 83.4c.4 2.5.3 4.9-.3 7.2-.6 2.2-1.5 4.2-2.9 6-1.3 1.7-3 3.2-5.1 4.3-2 1.1-4.3 1.9-6.8 2.3-2.5.4-4.9.3-7.2-.2s-4.3-1.4-6.1-2.7-3.3-2.9-4.5-4.9c-1.2-2-2-4.2-2.3-6.8-.4-2.6-.3-5 .3-7.2s1.5-4.2 2.9-5.8c1.3-1.7 3-3.1 5.1-4.2 2-1.1 4.3-1.8 6.8-2.2 2.5-.4 4.9-.3 7.2.2s4.3 1.3 6.1 2.5c1.8 1.2 3.3 2.8 4.4 4.8 1.2 1.9 2 4.2 2.4 6.7zm-8.3 1.3c-.2-1.4-.6-2.7-1.3-3.8-.6-1.1-1.4-2.1-2.3-2.8-.9-.7-2-1.3-3.2-1.6-1.2-.3-2.5-.4-3.9-.2s-2.6.6-3.6 1.3c-1 .7-1.9 1.5-2.6 2.5s-1.2 2.1-1.4 3.4c-.3 1.3-.3 2.6-.1 4 .2 1.5.6 2.8 1.3 3.9.6 1.2 1.4 2.1 2.4 2.9.9.8 2 1.3 3.2 1.6 1.2.3 2.5.4 3.8.2 1.4-.2 2.6-.6 3.6-1.3 1-.7 1.9-1.5 2.6-2.5.7-1 1.2-2.1 1.4-3.4.2-1.4.3-2.8.1-4.2zM444.5 99.5l-6.8-13.1-2.7-.1-.2 12.9-7.7-.1.6-32.6 12.4.2c1.6 0 3.1.2 4.6.6 1.5.4 2.8.9 4 1.7 1.2.8 2.1 1.8 2.8 3.1.7 1.3 1 2.8 1 4.7 0 2.2-.7 4.1-1.9 5.5-1.2 1.5-2.9 2.5-5 3.1l8.2 14.1h-9.3zm.1-22.6c0-.8-.1-1.4-.5-1.9-.3-.5-.7-.9-1.2-1.1-.5-.3-1.1-.5-1.7-.6-.6-.1-1.2-.2-1.8-.2l-4.2-.1-.1 7.6 3.7.1c.6 0 1.3 0 2-.1s1.3-.3 1.9-.5 1-.7 1.4-1.2c.3-.5.5-1.2.5-2zM493.2 105.8l4.6-22.6h-.1l-12.7 21-5.4-1-3.8-24.2h-.1l-4.2 22.7-7.3-1.4 6.2-32 11 2.1 3.3 21.9h.2l10.9-19.2 11.2 2.2-6.2 32-7.6-1.5zM533.9 119.4v-6.9l-11.8-4.6-4.5 5.1-8-3.1 24.5-25.4 7.1 2.8.8 35.3-8.1-3.2zm.5-25.4-7.9 8.9 7.6 3 .3-11.9zM568.5 137.1l-.8-25-.1-.1-10.4 18.6-6.6-3.8 16.1-28.3 7.8 4.4.8 24.9.1.1 10.4-18.6 6.6 3.8-16.1 28.3-7.8-4.3zM620.3 175.7c-2-1-3.9-2.3-5.8-4-2-1.7-3.5-3.6-4.6-5.6-1.1-2.1-1.8-4.2-2-6.3-.2-2.2 0-4.3.7-6.5s1.9-4.2 3.6-6.2c1.7-2 3.6-3.5 5.7-4.5s4.2-1.6 6.4-1.6c2.2-.1 4.3.3 6.5 1.1 2.1.8 4.2 2 6 3.6 1.9 1.7 3.5 3.5 4.7 5.6s1.8 4 2 5.9l-7.5 1c0-1.2-.3-2.4-.9-3.6-.6-1.3-1.5-2.4-2.7-3.4-1-.9-2.2-1.5-3.4-1.9-1.2-.4-2.4-.5-3.7-.4-1.2.1-2.4.5-3.6 1.1-1.2.6-2.2 1.5-3.2 2.6s-1.7 2.3-2.2 3.6c-.5 1.2-.7 2.5-.7 3.7 0 1.2.4 2.5 1 3.6.6 1.2 1.5 2.3 2.7 3.4.7.6 1.4 1.1 2.1 1.6.7.4 1.4.8 2.2 1l3.9-4.5-4.7-4.1 4.1-4.8 10.2 8.8-11.3 13.1c-1.7-.6-3.5-1.3-5.5-2.3zM645.9 201.7l4.8-13.9-1.8-2-9.5 8.7-5.2-5.7 24-22 8.4 9.2c1.1 1.2 2 2.4 2.7 3.7.8 1.3 1.3 2.7 1.5 4.1.2 1.4.1 2.8-.3 4.1-.5 1.4-1.4 2.7-2.7 3.9-1.6 1.5-3.4 2.3-5.3 2.4-1.9.1-3.8-.4-5.7-1.5l-4.5 15.7-6.4-6.7zm16.4-15.5c.6-.5.9-1.1 1-1.6.1-.6.1-1.1 0-1.7-.2-.6-.4-1.1-.8-1.6s-.7-1-1.1-1.4l-2.8-3.1-5.6 5.1 2.5 2.8c.4.5.9.9 1.5 1.4.5.4 1.1.8 1.7 1 .6.2 1.2.3 1.8.2.6-.2 1.2-.6 1.8-1.1zM691.9 235c-2.1 1.5-4.3 2.5-6.5 3-2.3.5-4.5.5-6.6.1-2.2-.4-4.2-1.3-6.1-2.6-1.9-1.3-3.6-3-5.1-5.1-1.5-2.1-2.5-4.2-3.1-6.5-.6-2.2-.7-4.4-.4-6.6.3-2.2 1.1-4.2 2.3-6.2 1.2-2 2.9-3.7 5-5.2s4.3-2.5 6.5-3 4.4-.5 6.5-.1c2.1.4 4.1 1.3 6 2.6 1.9 1.3 3.6 3 5 5.1 1.5 2.1 2.5 4.2 3.1 6.5.6 2.2.8 4.4.5 6.6-.3 2.1-1 4.2-2.2 6.1-1.1 2.1-2.8 3.8-4.9 5.3zm-4.8-6.9c1.2-.8 2.1-1.8 2.8-2.8.7-1.1 1.2-2.2 1.5-3.4.2-1.2.2-2.4 0-3.6-.2-1.2-.8-2.4-1.6-3.5s-1.7-2-2.8-2.6c-1.1-.6-2.2-1-3.4-1.2-1.2-.2-2.4-.1-3.7.3-1.3.3-2.5.9-3.6 1.7-1.2.8-2.2 1.8-2.9 2.9-.7 1.1-1.3 2.2-1.5 3.4s-.3 2.4 0 3.6c.2 1.2.8 2.4 1.6 3.5s1.7 2 2.8 2.6c1.1.6 2.2 1 3.4 1.2 1.2.2 2.4.1 3.7-.3 1.2-.3 2.5-.9 3.7-1.8zM702.4 275.6c-1.7.1-3.4-.1-5-.7s-3-1.5-4.4-2.8c-1.3-1.3-2.5-2.9-3.4-4.8-.9-1.9-1.5-3.8-1.7-5.6-.2-1.8 0-3.5.5-5.1.5-1.6 1.3-3 2.5-4.3 1.2-1.3 2.6-2.4 4.4-3.2l18.2-8.9 3.4 7-17.6 8.6c-.8.4-1.5.9-2.1 1.4-.6.6-1.1 1.2-1.5 1.9-.4.7-.5 1.5-.5 2.4 0 .9.3 1.8.8 2.8s1.1 1.8 1.7 2.3 1.4.9 2.2 1.1c.8.2 1.6.2 2.4 0 .8-.2 1.6-.4 2.4-.8l17.6-8.6 3.5 7.1-18.2 8.9c-1.7.7-3.5 1.2-5.2 1.3zM728.6 310.2c-1.9.4-3.5.5-4.9.1-1.4-.4-2.7-1.1-3.7-2.1-1.1-1-1.9-2.2-2.7-3.6s-1.3-3-1.7-4.6l-.9-3.8-12 2.8-1.8-7.7 31.7-7.5 2.7 11.6c.4 1.7.6 3.4.6 5s-.2 3-.7 4.3c-.5 1.3-1.3 2.4-2.4 3.3s-2.4 1.7-4.2 2.2zm-1.9-7.7c.7-.2 1.3-.5 1.7-.9.4-.4.7-.9.8-1.5.1-.6.2-1.2.1-1.9s-.2-1.3-.3-2l-.8-3.4-7.5 1.8.8 3.2c.2.7.4 1.4.7 2 .3.6.6 1.2 1 1.6.4.5.9.8 1.5 1 .6.3 1.3.3 2 .1z" class="st1"/></g></svg>